# xmcd
#
# Track frame offsets: 
#        150
#        18334
#        33337
#        48625
#        70411
#        89373
#        108199
#        123014
#        138351
#        156149
#        175573
#        189452
#        204886
#        224204
#        239291
#        252975
#
# Disc length: 3687 seconds
#
# Revision: 0
# Processed by: cddbd v1.5.2PL0 Copyright (c) Steve Scherf et al.
# Submitted via: ExactAudioCopyFreeDBPlugin 1.0
#
DISCID=da0e6510
DTITLE=Various Artist - New Country Rock - Vol. 5
DYEAR=2012
DGENRE=Country
TTITLE0=Delta Moon - Black Coffee
TTITLE1=Zona Jones - Could Not Stop Myself From Loving You
TTITLE2=Kevin Chase - Tattoo
TTITLE3=Michael Holloway - She'll Drive You Out Of Your Mind
TTITLE4=Jim Pyle - Hope In A Song
TTITLE5=Timo Gross - Small Town Blues
TTITLE6=Steff Nevers - Baby's Got Her Boots On
TTITLE7=Søren Carter - Stay With Me
TTITLE8=Get The Cat - Two Stepps Forward
TTITLE9=Jackson Mackay - Rock My Girl
TTITLE10=Eric Heatherly - Another Day Rolled - Another Day Rocked
TTITLE11=Debbie Nunn - Hey Girlfriend
TTITLE12=Dr. Will - Good Times Revisited
TTITLE13=Downtown Mystic - Hard Enough
TTITLE14=Rick Monroe - Midnight Rider
TTITLE15=Mark Selby - Dirt
EXTD=
EXTT0=
EXTT1=
EXTT2=
EXTT3=
EXTT4=
EXTT5=
EXTT6=
EXTT7=
EXTT8=
EXTT9=
EXTT10=
EXTT11=
EXTT12=
EXTT13=
EXTT14=
EXTT15=
PLAYORDER=
